<?xml version="1.0" encoding="utf-8"?>
<!-- Generator: Adobe Illustrator 27.9.0, SVG Export Plug-In . SVG Version: 6.00 Build 0)  -->
<svg version="1.1" id="Capa_1" xmlns="http://www.w3.org/2000/svg" xmlns:xlink="http://www.w3.org/1999/xlink" x="0px" y="0px"
	 viewBox="0 0 800 800" style="enable-background:new 0 0 800 800;" xml:space="preserve">
<style type="text/css">
	.st0{fill:#FFFFFF;}
	.st1{opacity:0.9;fill:#FFFFFF;}
	.st2{opacity:0.6;fill:#FFFFFF;}
	.st3{opacity:0.5;fill:#FFFFFF;}
	.st4{opacity:0.4;fill:#FFFFFF;}
	.st5{opacity:0.3;fill:#FFFFFF;}
	.st6{opacity:0.8;fill:#FFFFFF;}
	.st7{opacity:0.7;fill:#FFFFFF;}
</style>
<g>
	<path class="st0" d="M520,234.7c0,19.1-15.5,34.7-34.7,34.7s-34.7-15.5-34.7-34.7c0-19.1,15.5-34.7,34.7-34.7S520,215.5,520,234.7z
		"/>
	<path class="st1" d="M457.4,214.1c-5.2-1.3-10.5-2.4-15.8-3.2c-14.9-2.4-29.9-2.9-44.7-1.8c-14.8,1.1-29.3,3.9-43.2,8.4
		c-13.9,4.4-27.1,10.5-39.4,17.9c13.2-5.5,27-9.4,40.9-11.7c13.9-2.3,27.9-2.8,41.7-1.8c13.8,1,27.4,3.6,40.3,7.7
		c4.5,1.4,9,3.1,13.4,4.8C450.7,226.8,453.2,219.8,457.4,214.1z"/>
	<path class="st2" d="M280,565.3c0-19.1,15.5-34.7,34.7-34.7c19.1,0,34.7,15.5,34.7,34.7c0,19.1-15.5,34.7-34.7,34.7
		C295.6,600,280,584.5,280,565.3z"/>
	<path class="st3" d="M444.8,576.3c-13.9,2.3-27.9,2.8-41.7,1.8c-13.8-1-27.4-3.6-40.3-7.7c-4.5-1.4-9-3.1-13.4-4.8
		c-0.1,7.6-2.5,14.6-6.7,20.2c5.2,1.3,10.5,2.4,15.8,3.2c14.9,2.3,29.9,2.9,44.7,1.8c14.8-1.1,29.3-3.9,43.2-8.4
		c13.9-4.4,27.1-10.5,39.4-17.9C472.4,570.1,458.7,574.1,444.8,576.3z"/>
	<path class="st4" d="M565.3,520c-19.1,0-34.7-15.5-34.7-34.7c0-19.1,15.5-34.7,34.7-34.7c19.1,0,34.7,15.5,34.7,34.7
		C600,504.4,584.5,520,565.3,520z"/>
	<path class="st5" d="M578.1,397c-1,13.8-3.6,27.4-7.7,40.3c-1.4,4.5-3.1,9-4.8,13.4c7.6,0.1,14.6,2.5,20.2,6.7
		c1.3-5.2,2.4-10.5,3.2-15.8c2.4-14.9,2.9-29.9,1.8-44.7c-1.1-14.8-3.9-29.3-8.4-43.2c-4.4-13.9-10.5-27.1-17.9-39.4
		c5.5,13.2,9.4,27,11.7,40.9C578.6,369.1,579.1,383.2,578.1,397z"/>
	
		<ellipse transform="matrix(0.1484 -0.9889 0.9889 0.1484 -111.3657 500.0615)" class="st6" cx="234.7" cy="314.7" rx="34.7" ry="34.7"/>
	<path class="st7" d="M221.9,403c1-13.8,3.6-27.4,7.7-40.3c1.4-4.5,3.1-9,4.8-13.4c-7.6-0.1-14.6-2.5-20.2-6.7
		c-1.3,5.2-2.4,10.5-3.2,15.8c-2.4,14.9-2.9,29.9-1.8,44.7c1.1,14.8,3.9,29.3,8.4,43.2c4.4,13.9,10.5,27.1,17.9,39.4
		c-5.5-13.2-9.4-27-11.7-40.9C221.4,430.9,220.9,416.8,221.9,403z"/>
</g>
</svg>
